<?xml version="1.0" encoding="UTF-8" standalone="no"?>
<!-- Created with Inkscape (http://www.inkscape.org/) -->

<svg
   xmlns:dc="http://purl.org/dc/elements/1.1/"
   xmlns:cc="http://creativecommons.org/ns#"
   xmlns:rdf="http://www.w3.org/1999/02/22-rdf-syntax-ns#"
   xmlns:svg="http://www.w3.org/2000/svg"
   xmlns="http://www.w3.org/2000/svg"
   xmlns:sodipodi="http://sodipodi.sourceforge.net/DTD/sodipodi-0.dtd"
   xmlns:inkscape="http://www.inkscape.org/namespaces/inkscape"
   id="svg4136"
   version="1.1"
   inkscape:version="0.91 r13725"
   width="270"
   height="186"
   viewBox="0 0 270 186"
   sodipodi:docname="fcc.png"
   inkscape:export-filename="C:\repo\MEAN\hwe\client\images\fcc32.png"
   inkscape:export-xdpi="15.557143"
   inkscape:export-ydpi="15.557143">
  <metadata
     id="metadata4142">
    <rdf:RDF>
      <cc:Work
         rdf:about="">
        <dc:format>image/svg+xml</dc:format>
        <dc:type
           rdf:resource="http://purl.org/dc/dcmitype/StillImage" />
        <dc:title></dc:title>
      </cc:Work>
    </rdf:RDF>
  </metadata>
  <defs
     id="defs4140" />
  <sodipodi:namedview
     pagecolor="#ffffff"
     bordercolor="#666666"
     borderopacity="1"
     objecttolerance="10"
     gridtolerance="10"
     guidetolerance="10"
     inkscape:pageopacity="0"
     inkscape:pageshadow="2"
     inkscape:window-width="640"
     inkscape:window-height="480"
     id="namedview4138"
     showgrid="false"
     showborder="false" />
  <path
     style="fill:#000000"
     d="m 140.07135,179.83424 c -7.62924,-3.29713 -21.46661,-19.57008 -28.91769,-34.00761 -9.78307,-18.95613 -13.652686,-35.68923 -13.759666,-59.499996 -0.0782,-17.412215 0.65688,-22.656647 5.116236,-36.5 6.74514,-20.939155 24.80841,-46.6972966 36.82729,-52.5155368 3.87445,-1.8755865 4.72652,-1.9703659 7.18195,-0.7988746 5.32855,2.54226821 4.34843,5.4984838 -5.27969,15.9244064 -23.91167,25.893025 -32.41374,50.324238 -29.4239,84.551323 1.28204,14.676488 3.97153,25.142858 9.51206,37.016888 5.33772,11.43943 8.41022,15.91844 19.59138,28.55982 8.89455,10.05615 10.1768,12.73779 7.63611,15.96987 -1.88372,2.39631 -4.88335,2.85584 -8.48408,1.29971 z m 175.98408,-0.0296 c -3.94382,-2.78938 -2.85811,-5.76615 5.36248,-14.70259 14.93717,-16.23789 22.05859,-27.96964 27.00854,-44.49354 2.27294,-7.58753 2.69694,-11.1618 3.11769,-26.281838 0.54024,-19.413837 -0.7033,-29.173653 -5.39117,-42.311988 -5.27058,-14.771492 -11.04437,-24.004435 -23.84754,-38.134899 -3.85,-4.2491266 -7.39348,-8.5581946 -7.87439,-9.5757056 -1.31271,-2.777391 0.1207,-6.9046931 2.82609,-8.1373541 5.84192,-2.6617527 17.52693,7.4417911 29.19997,25.2479807 11.23477,17.137657 17.32638,35.333197 19.5024,58.25333 3.06444,32.278024 -6.51259,62.391174 -27.64186,86.914544 -10.58857,12.28946 -17.65058,16.48376 -22.26221,13.22206 z M 171.06422,166.62205 c -2.67202,-0.5153 -5.25879,-3.90104 -5.25879,-6.88307 0,-1.17845 0.93266,-3.32832 2.07258,-4.77749 l 2.07258,-2.63486 66.42742,0 c 65.09409,0 66.46756,0.0401 68.42742,2 2.97766,2.97766 2.66668,8.33043 -0.63486,10.92742 -2.60763,2.05116 -3.29733,2.07117 -66.75,1.9364 -35.26333,-0.0749 -65.12369,-0.33068 -66.35635,-0.5684 z m 44.16906,-32.77021 c -13.19301,-6.41997 -22.57884,-18.22195 -25.42011,-31.96388 -2.34803,-11.356353 0.08,-18.743862 13.51822,-41.130708 10.85811,-18.088609 13.47404,-24.301319 13.47404,-32.000249 0,-7.020262 -1.78634,-11.21671 -6.98967,-16.420039 -5.52437,-5.5243736 -4.90324,-7.5130986 2.08795,-6.6850956 11.1813,1.32426 23.61237,10.1424846 28.31698,20.0872176 1.34395,2.840874 3.42652,10.322749 4.62795,16.626387 3.08875,16.206128 5.64248,20.290059 11.02012,17.623448 3.36468,-1.668443 3.70088,-7.015072 0.85684,-13.626228 -1.20595,-2.803307 -1.94025,-5.349315 -1.63177,-5.657797 2.00189,-2.001888 12.31256,7.03435 18.25947,16.002545 5.38134,8.115285 7.60871,15.670228 8.18994,27.779179 0.62044,12.925852 -1.47773,21.22761 -7.7322,30.59374 -5.68097,8.50733 -18.04808,18.21142 -21.51404,16.88141 -2.31532,-0.88847 -1.84295,-2.0664 3.12932,-7.80349 2.54148,-2.93241 5.74824,-7.74606 7.12611,-10.697 4.08606,-8.75095 2.32254,-20.928158 -4.03829,-27.884646 -3.70405,-4.050916 -4.36122,-2.17402 -2.0829,5.948848 0.77743,2.77176 -3.12388,5.80115 -7.47082,5.80115 -5.99864,0 -7.15499,-2.01871 -7.15499,-12.490881 0,-7.609682 -0.34511,-9.422283 -2.49115,-13.084232 -2.32951,-3.975004 -7.8104,-8.424885 -10.37688,-8.424885 -1.61666,0 -1.39914,2.533382 0.34157,3.978038 0.81044,0.67261 1.75502,2.72338 2.09906,4.557266 1.13011,6.023992 -1.23622,10.350641 -10.64563,19.464694 -10.2255,9.904528 -11.60596,13.055038 -10.02414,22.877248 1.56885,9.7417 5.3786,15.66698 12.38249,19.25841 3.73513,1.91529 4.19762,3.88013 0.90566,3.84766 -0.93004,-0.009 -4.87345,-1.56532 -8.76313,-3.45811 z"
     id="path4146"
     inkscape:connector-curvature="0" />
</svg>
